#!OML:ASF X:\für Bonn\!DataBase\2005_08_12_Daniel\c3d\Daniel.ASF
:FULLY-SPECIFIED
:DEGREES
79
root 3.92452 16.975 -7.47856 -6.07483 181.513 -348.88
lowerback 12.4681 -0.0933504 1.49878
upperback 3.66843 -0.351522 -0.61088
thorax -3.15178 -0.342077 -1.42027
lowerneck -4.99034 12.4757 1.19566
upperneck 1.69334 16.7524 -11.9361
head 2.67985 7.94297 -3.34242
rclavicle -8.34896e-015 -5.24792e-014
rhumerus -57.7726 14.3672 -103.532
rradius 85.4923
rwrist 3.49174
rhand -25.6932 33.5236
rfingers 7.12502
rthumb 0.842033 3.54548
lclavicle -8.34896e-015 -5.24792e-014
lhumerus -65.9263 -0.943592 95.1382
lradius 115.271
lwrist 19.8308
lhand -7.80233 -12.9936
lfingers 7.12502
lthumb 18.099 16.1843
rfemur 6.43808 -8.40329 15.5719
rtibia 72.0666
rfoot 1.5499 -0.87405
rtoes -14.8336
lfemur -21.2485 3.70699 -28.8233
ltibia 45.2009
lfoot -18.5119 7.40215
ltoes 13.5256
80
root 3.93319 16.842 -7.7548 -6.58113 182.182 -349.112
lowerback 13.1463 -0.225084 1.04265
upperback 3.81433 -0.611225 -0.644895
thorax -3.37491 -0.484424 -1.15449
lowerneck -4.91447 12.6161 1.47615
upperneck 1.49382 16.9164 -12.2573
head 2.67574 8.02877 -3.49243
rclavicle 1.98785e-015 -1.43125e-014
rhumerus -57.0046 12.4955 -102.285
rradius 82.878
rwrist 4.05017
rhand -26.6022 33.9842
rfingers 7.12502
rthumb -0.0358503 4.00445
lclavicle 1.98785e-015 -1.43125e-014
lhumerus -64.1365 -0.387601 95.0625
lradius 115.373
lwrist 19.6508
lhand -7.83393 -13.3803
lfingers 7.12502
lthumb 18.0686 15.8005
rfemur 4.96936 -8.34115 14.8712
rtibia 75.0617
rfoot 1.18176 -0.845451
rtoes -13.2231
lfemur -20.661 3.05636 -29.3824
ltibia 47.048
lfoot -20.575 7.71092
ltoes 14.3542
81
root 3.94419 16.7135 -8.0253 -7.11127 182.822 -349.356
lowerback 13.9166 -0.339289 0.501953
upperback 3.938 -0.865478 -0.649473
thorax -3.66458 -0.623778 -0.805209
lowerneck -4.85407 12.7578 1.75255
upperneck 1.35246 17.0881 -12.5621
head 2.69383 8.1153 -3.6338
rclavicle -7.7526e-015 -2.06736e-014
rhumerus -56.2728 10.5454 -100.916
rradius 80.0954
rwrist 4.7814
rhand -27.5927 34.3569
rfingers 7.12502
rthumb -0.992578 4.3795
lclavicle -7.7526e-015 -2.06736e-014
lhumerus -62.2666 0.245787 95.0613
lradius 115.432
lwrist 19.3165
lhand -8.05051 -13.8837
lfingers 7.12502
lthumb 17.8602 15.3161
rfemur 3.43569 -8.19859 14.2558
rtibia 77.8816
rfoot 0.524792 -0.846851
rtoes -13.4494
lfemur -20.0035 2.53927 -29.904
ltibia 48.8388
lfoot -22.6237 7.96781
ltoes 14.4055
82
root 3.95077 16.5935 -8.30025 -7.5669 183.44 -349.628
lowerback 14.5925 -0.438599 -0.0781114
upperback 4.04673 -1.11048 -0.645391
thorax -3.91164 -0.755595 -0.42224
lowerneck -4.75861 12.9049 1.94368
upperneck 1.11922 17.2582 -12.8733
head 2.6672 8.20463 -3.76864
rclavicle 5.96354e-016 3.18055e-014
rhumerus -55.5423 8.59952 -99.3763
rradius 77.0621
rwrist 5.63168
rhand -28.7952 34.7723
rfingers 7.12502
rthumb -2.15393 4.80344
lclavicle 5.96354e-016 3.18055e-014
lhumerus -60.3507 0.869642 95.0502
lradius 115.544
lwrist 19.0573
lhand -8.31056 -14.4346
lfingers 7.12502
lthumb 17.61 14.7879
rfemur 1.75797 -7.98747 13.6756
rtibia 80.4765
rfoot 0.0360176 -0.875873
rtoes -13.0158
lfemur -19.2976 2.05151 -30.4303
ltibia 50.4768
lfoot -24.6452 8.1221
ltoes 14.364
83
root 3.95272 16.486 -8.57393 -7.95204 184.085 -349.856
lowerback 15.2242 -0.556606 -0.61123
upperback 4.12215 -1.37335 -0.604516
thorax -4.1635 -0.89265 -0.0198978
lowerneck -4.69231 13.0497 1.97899
upperneck 0.96215 17.4344 -13.1261
head 2.64997 8.29101 -3.85473
rclavicle -1.74931e-014 -1.59028e-014
rhumerus -54.8658 6.78523 -97.6927
rradius 73.9195
rwrist 6.40248
rhand -30.0032 34.7867
rfingers 7.12502
rthumb -3.32052 4.83279
lclavicle -1.74931e-014 -1.59028e-014
lhumerus -58.3728 1.631 95.1593
lradius 115.602
lwrist 18.5552
lhand -8.79834 -15.0104
lfingers 7.12502
lthumb 17.1406 14.2536
rfemur -0.0499802 -7.79359 13.205
rtibia 82.8308
rfoot -0.369571 -0.953119
rtoes -11.8677
lfemur -18.5575 1.72063 -30.8763
ltibia 51.8908
lfoot -26.4727 8.1597
ltoes 14.0901
84
root 3.94848 16.395 -8.84987 -8.25888 184.725 -350.119
lowerback 15.7546 -0.649479 -1.05301
upperback 4.18648 -1.596 -0.657473
thorax -4.37159 -1.00803 0.22684
lowerneck -4.56188 13.155 1.92818
upperneck 0.71998 17.5499 -13.2134
head 2.55854 8.36158 -3.88228
rclavicle 3.18055e-015 -2.38542e-014
rhumerus -54.1552 4.82117 -95.9787
rradius 70.4546
rwrist 7.33331
rhand -31.4429 34.6513
rfingers 7.12502
rthumb -4.71086 4.72372
lclavicle 3.18055e-015 -2.38542e-014
lhumerus -56.4507 2.19258 95.1683
lradius 115.796
lwrist 18.0281
lhand -9.25137 -15.213
lfingers 7.12502
lthumb 16.7045 14.0883
rfemur -1.92817 -7.59957 12.7608
rtibia 84.885
rfoot -0.834193 -0.967102
rtoes -10.8972
lfemur -17.7292 1.59665 -31.3082
ltibia 53.0115
lfoot -28.0863 8.00901
ltoes 13.6987
85
root 3.93542 16.3325 -9.13323 -8.48676 185.368 -350.321
lowerback 16.1401 -0.770389 -1.42662
upperback 4.24704 -1.83866 -0.663727
thorax -4.50194 -1.13115 0.487209
lowerneck -4.42647 13.2543 1.60006
upperneck 0.434009 17.6538 -13.2161
head 2.41119 8.42673 -3.83998
rclavicle -5.76476e-015 0
rhumerus -53.3934 2.96601 -94.1322
rradius 66.6791
rwrist 8.23182
rhand -32.811 34.3133
rfingers 7.12502
rthumb -6.03171 4.41913
lclavicle -5.76476e-015 0
lhumerus -54.5287 2.8218 95.2571
lradius 116.033
lwrist 17.3633
lhand -9.90787 -15.1481
lfingers 7.12502
lthumb 16.0724 14.2053
rfemur -3.82924 -7.42046 12.4535
rtibia 86.5702
rfoot -1.29219 -1.0581
rtoes -9.4885
lfemur -16.7672 1.66204 -31.5835
ltibia 53.7833
lfoot -29.4659 7.63636
ltoes 13.1115
86
root 3.91556 16.2914 -9.4178 -8.5887 186.025 -350.544
lowerback 16.3877 -0.921098 -1.79329
upperback 4.2398 -2.10628 -0.672089
thorax -4.62618 -1.25984 0.745467
lowerneck -4.14032 13.3569 1.21614
upperneck 0.144367 17.7554 -13.166
head 2.22411 8.49873 -3.78368
rclavicle -8.34896e-015 -2.70347e-014
rhumerus -52.8769 1.07548 -92.1812
rradius 62.8171
rwrist 9.034
rhand -34.0133 33.8809
rfingers 7.12502
rthumb -7.19237 4.02309
lclavicle -8.34896e-015 -2.70347e-014
lhumerus -52.7046 3.56258 95.3821
lradius 116.366
lwrist 16.6298
lhand -10.4531 -14.7992
lfingers 7.12502
lthumb 15.5473 14.5958
rfemur -5.87302 -7.23607 12.2382
rtibia 87.9439
rfoot -1.94495 -1.34901
rtoes -8.76007
lfemur -15.7116 1.91675 -31.8001
ltibia 54.1982
lfoot -30.5391 7.05662
ltoes 12.7696
87
root 3.88798 16.2738 -9.70598 -8.58764 186.692 -350.684
lowerback 16.4346 -1.07632 -2.04788
upperback 4.26364 -2.35443 -0.673599
thorax -4.61068 -1.38045 0.937659
lowerneck -3.86047 13.4495 0.907818
upperneck -0.21842 17.8327 -13.1963
head 2.03019 8.56112 -3.77117
rclavicle 1.35174e-014 1.43125e-014
rhumerus -52.5651 -0.858775 -90.1518
rradius 59.1114
rwrist 9.8879
rhand -34.9266 33.3709
rfingers 7.12502
rthumb -8.0739 3.54511
lclavicle 1.35174e-014 1.43125e-014
lhumerus -50.9499 4.15238 95.5722
lradius 116.836
lwrist 15.9413
lhand -11.1182 -14.26
lfingers 7.12502
lthumb 14.9066 15.1836
rfemur -7.95205 -6.97396 12.2768
rtibia 88.9596
rfoot -2.83764 -1.7854
rtoes -8.67432
lfemur -14.5676 2.24447 -31.8368
ltibia 54.2889
lfoot -31.398 6.29131
ltoes 12.3633
88
root 3.85607 16.2738 -9.99412 -8.43202 187.399 -350.836
lowerback 16.3448 -1.28445 -2.33622
upperback 4.20877 -2.65887 -0.660414
thorax -4.59868 -1.52126 1.17162
lowerneck -3.44806 13.57 0.553913
upperneck -0.595489 17.9382 -13.1792
head 1.80134 8.64531 -3.74618
rclavicle 4.33351e-014 2.22639e-014
rhumerus -52.5217 -2.61844 -88.0971
rradius 55.6418
rwrist 10.4975
rhand -35.4719 32.9782
rfingers 7.12502
rthumb -8.60018 3.1734
lclavicle 4.33351e-014 2.22639e-014
lhumerus -49.3586 4.94376 95.8331
lradius 117.385
lwrist 15.2762
lhand -11.6037 -13.6261
lfingers 7.12502
lthumb 14.4389 15.8516
rfemur -10.1583 -6.5794 12.534
rtibia 89.6399
rfoot -3.75764 -2.40681
rtoes -8.48435
lfemur -13.421 2.46627 -31.8481
ltibia 54.1139
lfoot -32.0446 5.50134
ltoes 11.8878
89
root 3.81813 16.2871 -10.2835 -8.20299 188.105 -350.953
lowerback 16.1291 -1.49145 -2.57853
upperback 4.14241 -2.94361 -0.626422
thorax -4.52958 -1.65142 1.39139
lowerneck -3.08481 13.6771 0.239651
upperneck -0.917686 18.0302 -13.1716
head 1.60482 8.7185 -3.72811
rclavicle 8.34896e-015 3.02153e-014
rhumerus -52.648 -4.16693 -86.0473
rradius 52.4249
rwrist 10.9342
rhand -35.6332 32.7519
rfingers 7.12502
rthumb -8.7559 2.95351
lclavicle 8.34896e-015 3.02153e-014
lhumerus -48.0398 5.62474 96.2667
lradius 117.989
lwrist 14.8258
lhand -12.2696 -13.1555
lfingers 7.12502
lthumb 13.7972 16.3669
rfemur -12.3405 -6.00722 12.9958
rtibia 89.9632
rfoot -4.61424 -3.03013
rtoes -8.58673
lfemur -12.2486 2.57389 -31.8239
ltibia 53.7224
lfoot -32.3727 4.74107
ltoes 11.4255
